<svg width="24" height="24" viewBox="0 0 24 24" fill="none" xmlns="http://www.w3.org/2000/svg">
<path d="M11.1196 18.25C10.9296 18.25 10.7396 18.18 10.5896 18.03L9.08957 16.53C8.79957 16.24 8.79957 15.76 9.08957 15.47C9.37957 15.18 9.85957 15.18 10.1496 15.47L11.1396 16.46L13.8596 13.95C14.1596 13.67 14.6396 13.69 14.9196 13.99C15.1996 14.29 15.1796 14.77 14.8796 15.05L11.6296 18.05C11.4896 18.18 11.3096 18.25 11.1196 18.25Z" fill="#292D32"/>
<path d="M5.18988 6.37994C4.99988 6.37994 4.79988 6.29994 4.65988 6.15994C4.36988 5.86994 4.36988 5.38994 4.65988 5.09994L8.28988 1.46994C8.57988 1.17994 9.05988 1.17994 9.34988 1.46994C9.63988 1.75994 9.63988 2.23994 9.34988 2.52994L5.71988 6.15994C5.56988 6.29994 5.37988 6.37994 5.18988 6.37994Z" fill="#292D32"/>
<path d="M18.8101 6.37994C18.6201 6.37994 18.4301 6.30994 18.2801 6.15994L14.6501 2.52994C14.3601 2.23994 14.3601 1.75994 14.6501 1.46994C14.9401 1.17994 15.4201 1.17994 15.7101 1.46994L19.3401 5.09994C19.6301 5.38994 19.6301 5.86994 19.3401 6.15994C19.2001 6.29994 19.0001 6.37994 18.8101 6.37994Z" fill="#292D32"/>
<path d="M20.21 10.6001C20.14 10.6001 20.07 10.6001 20 10.6001H19.77H4C3.3 10.6101 2.5 10.6101 1.92 10.0301C1.46 9.5801 1.25 8.8801 1.25 7.8501C1.25 5.1001 3.26 5.1001 4.22 5.1001H19.78C20.74 5.1001 22.75 5.1001 22.75 7.8501C22.75 8.8901 22.54 9.5801 22.08 10.0301C21.56 10.5501 20.86 10.6001 20.21 10.6001ZM4.22 9.1001H20.01C20.46 9.1101 20.88 9.1101 21.02 8.9701C21.09 8.9001 21.24 8.6601 21.24 7.8501C21.24 6.7201 20.96 6.6001 19.77 6.6001H4.22C3.03 6.6001 2.75 6.7201 2.75 7.8501C2.75 8.6601 2.91 8.9001 2.97 8.9701C3.11 9.1001 3.54 9.1001 3.98 9.1001H4.22Z" fill="#292D32"/>
<path d="M14.8898 22.7502H8.85975C5.27975 22.7502 4.47975 20.6202 4.16975 18.7702L2.75975 10.1202C2.68975 9.71024 2.96975 9.33024 3.37975 9.26024C3.77975 9.19024 4.16975 9.47024 4.23975 9.88024L5.64975 18.5202C5.93975 20.2902 6.53975 21.2502 8.85975 21.2502H14.8898C17.4598 21.2502 17.7498 20.3502 18.0798 18.6102L19.7598 9.86024C19.8398 9.45024 20.2298 9.18024 20.6398 9.27024C21.0498 9.35024 21.3098 9.74024 21.2298 10.1502L19.5498 18.9002C19.1598 20.9302 18.5098 22.7502 14.8898 22.7502Z" fill="#292D32"/>
</svg>
