<svg xmlns="http://www.w3.org/2000/svg" width="16" height="14" viewBox="0 0 16 14" fill="none">
<path d="M15.0969 3.04625C15.0269 2.95421 14.9367 2.87959 14.8331 2.8282C14.7296 2.77681 14.6156 2.75005 14.5 2.75H3.76437L3.2225 0.799375C3.17865 0.641432 3.08427 0.502203 2.95379 0.402988C2.82331 0.303773 2.66392 0.250037 2.5 0.25H1.25C1.05109 0.25 0.860322 0.329018 0.71967 0.46967C0.579018 0.610322 0.5 0.801088 0.5 1C0.5 1.19891 0.579018 1.38968 0.71967 1.53033C0.860322 1.67098 1.05109 1.75 1.25 1.75H1.93L4.07375 9.46813C4.17697 9.83646 4.39767 10.161 4.70228 10.3924C5.00688 10.6238 5.37873 10.7493 5.76125 10.75H11.9375C12.32 10.7493 12.6919 10.6238 12.9965 10.3924C13.3011 10.161 13.5218 9.83646 13.625 9.46813L15.2269 3.70062C15.2572 3.58892 15.2612 3.47171 15.2386 3.35819C15.2161 3.24466 15.1676 3.1379 15.0969 3.04625ZM12.175 9.06688C12.1605 9.11898 12.1296 9.16499 12.0868 9.198C12.0439 9.23102 11.9916 9.24927 11.9375 9.25H5.76C5.7054 9.24994 5.65231 9.23201 5.60886 9.19894C5.56541 9.16587 5.53398 9.11949 5.51937 9.06688L4.18125 4.25H13.5131L12.175 9.06688ZM6.75 12.75C6.75 12.9972 6.67669 13.2389 6.53934 13.4445C6.40199 13.65 6.20676 13.8102 5.97835 13.9048C5.74995 13.9995 5.49861 14.0242 5.25614 13.976C5.01366 13.9278 4.79093 13.8087 4.61612 13.6339C4.4413 13.4591 4.32225 13.2363 4.27402 12.9939C4.22579 12.7514 4.25054 12.5001 4.34515 12.2716C4.43976 12.0432 4.59998 11.848 4.80554 11.7107C5.0111 11.5733 5.25277 11.5 5.5 11.5C5.83152 11.5 6.14946 11.6317 6.38388 11.8661C6.6183 12.1005 6.75 12.4185 6.75 12.75ZM13.25 12.75C13.25 12.9972 13.1767 13.2389 13.0393 13.4445C12.902 13.65 12.7068 13.8102 12.4784 13.9048C12.2499 13.9995 11.9986 14.0242 11.7561 13.976C11.5137 13.9278 11.2909 13.8087 11.1161 13.6339C10.9413 13.4591 10.8222 13.2363 10.774 12.9939C10.7258 12.7514 10.7505 12.5001 10.8452 12.2716C10.9398 12.0432 11.1 11.848 11.3055 11.7107C11.5111 11.5733 11.7528 11.5 12 11.5C12.3315 11.5 12.6495 11.6317 12.8839 11.8661C13.1183 12.1005 13.25 12.4185 13.25 12.75Z" fill="black"/>
</svg>