<svg xmlns="http://www.w3.org/2000/svg" width="16" height="16" viewBox="0 0 16 16" fill="none">
<path d="M13.5292 11.5306L11.5292 13.5306C11.3883 13.6715 11.1972 13.7506 10.9979 13.7506C10.7987 13.7506 10.6076 13.6715 10.4667 13.5306C10.3258 13.3897 10.2466 13.1986 10.2466 12.9993C10.2466 12.8001 10.3258 12.609 10.4667 12.4681L11.1861 11.75H2.99856C2.79965 11.75 2.60888 11.671 2.46823 11.5303C2.32758 11.3896 2.24856 11.1989 2.24856 11C2.24856 10.8011 2.32758 10.6103 2.46823 10.4696C2.60888 10.329 2.79965 10.25 2.99856 10.25H11.1861L10.4661 9.5306C10.3252 9.3897 10.246 9.19861 10.246 8.99935C10.246 8.80009 10.3252 8.60899 10.4661 8.4681C10.607 8.3272 10.7981 8.24805 10.9973 8.24805C11.1966 8.24805 11.3877 8.3272 11.5286 8.4681L13.5286 10.4681C13.5985 10.5377 13.654 10.6205 13.692 10.7116C13.7299 10.8028 13.7494 10.9005 13.7495 10.9992C13.7495 11.0979 13.7301 11.1957 13.6923 11.2869C13.6545 11.3781 13.5991 11.4609 13.5292 11.5306ZM4.46669 7.5306C4.60758 7.67149 4.79868 7.75065 4.99794 7.75065C5.19719 7.75065 5.38829 7.67149 5.52919 7.5306C5.67008 7.3897 5.74924 7.19861 5.74924 6.99935C5.74924 6.80009 5.67008 6.60899 5.52919 6.4681L4.81106 5.74997H12.9986C13.1975 5.74997 13.3882 5.67096 13.5289 5.5303C13.6695 5.38965 13.7486 5.19889 13.7486 4.99997C13.7486 4.80106 13.6695 4.61029 13.5289 4.46964C13.3882 4.32899 13.1975 4.24997 12.9986 4.24997H4.81106L5.52919 3.5306C5.67008 3.3897 5.74924 3.19861 5.74924 2.99935C5.74924 2.80009 5.67008 2.60899 5.52919 2.4681C5.38829 2.3272 5.19719 2.24805 4.99794 2.24805C4.79868 2.24805 4.60758 2.3272 4.46669 2.4681L2.46669 4.4681C2.39677 4.53778 2.34129 4.62057 2.30343 4.71173C2.26558 4.8029 2.24609 4.90064 2.24609 4.99935C2.24609 5.09806 2.26558 5.1958 2.30343 5.28696C2.34129 5.37813 2.39677 5.46092 2.46669 5.5306L4.46669 7.5306Z" fill="white"/>
</svg>