<svg xmlns="http://www.w3.org/2000/svg" width="1440" height="263" viewBox="0 0 1440 263" fill="none">
<path d="M1582.49 197.798H1689.89L1873.16 262L1744.98 262M1582.49 197.798L1465.33 151.522H1280.54M1582.49 197.798L1744.98 262M1582.49 197.798H1367.7M1367.7 197.798L1280.54 151.522M1367.7 197.798L1488.63 261.999M1367.7 197.798H1152.93M1152.93 197.798H1045.54M1152.93 197.798L1095.73 151.521L1003.34 151.522M1152.93 197.798L1232.27 261.999M1045.54 197.798L1003.34 151.522M1045.54 197.798L938.166 197.798M1045.54 197.798L1104.12 261.999M1003.34 151.522L971.456 116.577M1003.34 151.522L910.926 151.522M971.456 116.577L890.37 116.577M971.456 116.577L1052.54 116.577L1095.73 151.522H1280.54M971.456 116.577L884.706 21.4866H834.419M834.419 21.4866H784.131M834.419 21.4866L890.37 116.577M834.419 21.4866L822.362 1M784.131 21.4866H733.844M784.131 21.4866L778.715 1M784.131 21.4866L809.286 116.577M733.844 21.4866L734.479 10.5185L735.045 1M733.844 21.4866L733.074 34.2456L729.811 89.2465L723.398 197.797M733.844 21.4866H633.247M633.247 21.4866H582.96L484.947 116.577M633.247 21.4866L647.728 1M633.247 21.4866L613.577 49.293L600.863 67.3092L566.031 116.577M484.947 116.577L448.914 151.522M484.947 116.577L403.861 116.577L356.52 151.522H171.711M484.947 116.577L566.031 116.577M448.914 151.522L401.233 197.798M448.914 151.522L356.521 151.521L293.838 197.798M448.914 151.522L541.33 151.522M401.233 197.798H293.838M401.233 197.798L335.06 261.999M401.233 197.798L508.606 197.798M293.838 197.798L206.883 261.999M293.838 197.798H-135.722M-135.722 197.798H-243.095L-434 262L-305.824 262M-135.722 197.798L-305.824 262M-135.722 197.798L-13.0756 151.522H171.711M-305.824 262L206.883 261.999M171.711 151.522L-49.4706 262.001M171.711 151.522L376.395 49.2943H435.679L460.947 34.2469H1114.05L1147.29 49.2943H1206.57L1252.17 67.3106H1317.32L1379.96 89.2478M566.031 116.577H647.116M566.031 116.577L541.33 151.522M647.116 116.577H809.286M647.116 116.577L591.412 261.999M647.116 116.577L672.882 49.293L678.661 34.2456L683.534 21.4866L691.398 1M809.286 116.577H890.37M809.286 116.577L818.532 151.521M890.37 116.577L910.926 151.522M1280.54 151.522L1087.98 49.293M1744.98 262L1488.63 261.999M-177.647 261.996L224.152 89.2435H368.623L405.448 67.3062H1056.78L1091.02 89.2435H1235.49L1616.8 261.996M-243.094 197.796L-105.49 151.521H-13.0741L79.5231 116.575H322.778M322.778 116.575H403.863L440.87 89.2452M322.778 116.575L368.623 89.2451L440.87 89.2452M322.778 116.575L78.7073 261.998M440.87 89.2452L494.987 49.2917H969.395L1018.78 89.2452M440.87 89.2452H1018.78M1018.78 89.2452L1052.54 116.575H1133.63M1018.78 89.2452L1091.02 89.2451L1133.63 116.575M1133.63 116.575H1376.88L1465.33 151.521H1557.75L1689.89 197.796M1133.63 116.575L1360.45 261.998M1488.63 261.999H1232.27M1232.27 261.999H1104.12M1104.12 261.999H975.943M975.943 261.999L938.166 197.798M975.943 261.999L847.767 261.999M938.166 197.798L910.926 151.522M938.166 197.798L723.398 197.797M910.926 151.522L818.532 151.521M822.362 1H778.715M822.362 1L866.031 1M778.715 1H735.045M735.045 1H691.398M691.398 1H647.728M647.728 1L604.059 1M541.33 151.522L508.606 197.798M541.33 151.522L818.532 151.521M508.606 197.798L463.236 261.999M508.606 197.798L723.398 197.797M463.236 261.999H335.06M463.236 261.999L719.59 261.999M335.06 261.999H206.883M847.767 261.999H719.59M847.767 261.999L818.532 151.521M719.59 261.999L723.398 197.797M-105.491 151.525L-1.5625 116.579H79.5225L151.905 89.2493H224.152L275.187 67.312H405.448L435.68 49.2958H494.986L532.673 21.4894H582.96L594.269 10.5213H874.712L884.706 21.4894H934.993L969.394 49.2958H1028.68L1056.78 67.312H1187.04L1235.49 89.2493H1307.74L1376.88 116.579H1457.97L1557.75 151.525M-1.56189 116.577L79.6589 89.2465M79.6589 89.2465H151.906L210.057 67.3092M79.6589 89.2465L144.926 67.3092M210.057 67.3092H275.187L317.089 49.293M210.057 67.3092H144.926M210.057 67.3092L257.783 49.293M317.089 49.293H376.396L406.514 34.2456M317.089 49.293H257.783M317.089 49.293L352.102 34.2456M406.514 34.2456H460.948L482.387 21.4866M406.514 34.2456H352.102M406.514 34.2456L432.077 21.4866M482.387 21.4866H532.674L547.518 10.5185M482.387 21.4866H432.077M482.387 21.4866L500.788 10.5185H547.518M547.518 10.5185L560.412 1M547.518 10.5185H594.269L604.059 1M560.412 1H604.059M560.412 1H516.742M144.926 67.3092L198.498 49.293M257.783 49.293L198.498 49.293M257.783 49.293L297.667 34.2456M352.102 34.2456L297.667 34.2456M352.102 34.2456L381.789 21.4866M432.077 21.4866L381.789 21.4866M432.077 21.4866L454.036 10.5185M198.498 49.293L243.255 34.2456M297.667 34.2456L243.255 34.2456M297.667 34.2456L331.501 21.4866M381.789 21.4866L331.501 21.4866M381.789 21.4866L407.283 10.5185M454.036 10.5185L473.094 1M454.036 10.5185L407.283 10.5185M454.036 10.5185L500.787 10.5185L516.742 1M473.094 1H516.742M473.094 1H429.424M243.255 34.2456L281.214 21.4866M331.501 21.4866H281.214M331.501 21.4866L360.554 10.5185M407.283 10.5185H360.554M407.283 10.5185L429.424 1M1040.67 1H1084.31M1084.31 1H1127.98L1155.15 10.5185M1084.31 1L1108.4 10.5185H1155.15M1155.15 10.5185L1186.45 21.4866M866.031 1L874.711 10.5185H921.44M866.031 1H909.68M921.44 10.5185L934.992 21.4866H985.28M921.44 10.5185L909.68 1M921.44 10.5185L968.193 10.5185M985.28 21.4866L968.193 10.5185M985.28 21.4866L1035.59 21.4866M985.28 21.4866L1028.68 49.293H1087.98M1087.98 49.293L1147.29 49.293L1187.04 67.3092H1252.17L1307.74 89.2465H1379.96L1457.97 116.577M1087.98 49.293L1035.59 21.4866M953.35 1H996.997M953.35 1H909.68M953.35 1L968.193 10.5185M996.997 1H1040.67L1061.67 10.5185M996.997 1L1014.92 10.5185M1061.67 10.5185L1085.88 21.4866M1061.67 10.5185H1014.92M1061.67 10.5185H1108.4L1136.16 21.4866M1085.88 21.4866H1136.16M1085.88 21.4866L1035.59 21.4866M1085.88 21.4866L1114.05 34.2456L1168.48 34.2456M1136.16 21.4866L1168.48 34.2456M1136.16 21.4866H1186.45L1222.92 34.2456M1168.48 34.2456H1222.92M1168.48 34.2456L1206.58 49.293L1265.88 49.293M1222.92 34.2456L1265.88 49.293M1265.88 49.293L1317.32 67.3092M968.193 10.5185L1014.92 10.5185M1035.59 21.4866L1014.92 10.5185M281.214 21.4866L313.802 10.5185M360.554 10.5185L385.777 1M360.554 10.5185H313.802M385.777 1H429.424M385.777 1H342.107L313.802 10.5185" stroke="url(#paint0_linear_2237_7478)" stroke-opacity="0.16" stroke-linecap="round" stroke-linejoin="round"/>
<defs>
<linearGradient id="paint0_linear_2237_7478" x1="719.579" y1="1" x2="719.579" y2="262.001" gradientUnits="userSpaceOnUse">
<stop stop-opacity="0"/>
<stop offset="1"/>
</linearGradient>
</defs>
</svg>