<svg xmlns="http://www.w3.org/2000/svg" width="1440" height="263" viewBox="0 0 1440 263" fill="none">
<path d="M1729.35 24.4863H1854.84L2069 -52.9985L1919.22 -52.9989M1729.35 24.4863L1592.44 80.3357H1376.51M1729.35 24.4863L1919.22 -52.9989M1729.35 24.4863H1478.36M1478.36 24.4863L1376.51 80.3357M1478.36 24.4863L1619.66 -52.9984M1478.36 24.4863H1227.39M1227.39 24.4863H1101.9M1227.39 24.4863L1160.55 80.3373L1052.59 80.3362M1227.39 24.4863L1320.1 -52.9984M1101.9 24.4863L1052.59 80.3362M1101.9 24.4863L976.427 24.4863M1101.9 24.4863L1170.35 -52.9984M1052.59 80.3362L1015.33 122.511M1052.59 80.3362L944.596 80.3362M1015.33 122.511L920.576 122.511M1015.33 122.511L1110.08 122.511L1160.55 80.3357H1376.51M1015.33 122.511L913.957 237.275H855.195M855.195 237.275H796.432M855.195 237.275L920.576 122.511M855.195 237.275L841.106 262M796.432 237.275H737.67M796.432 237.275L790.103 262M796.432 237.275L825.826 122.511M737.67 237.275L738.412 250.512L739.073 262M737.67 237.275L736.77 221.876L732.956 155.496L725.463 24.4866M737.67 237.275H620.119M620.119 237.275H561.356L446.824 122.511M620.119 237.275L637.04 262M620.119 237.275L597.133 203.716L582.276 181.972L541.573 122.511M446.824 122.511L404.718 80.3362M446.824 122.511L352.072 122.511L296.752 80.3357H80.7957M446.824 122.511L541.573 122.511M404.718 80.3362L349.001 24.4863M404.718 80.3362L296.753 80.3373L223.505 24.4863M404.718 80.3362L512.71 80.3362M349.001 24.4863H223.505M349.001 24.4863L271.675 -52.9984M349.001 24.4863L474.47 24.4863M223.505 24.4863L121.896 -52.9984M223.505 24.4863H-278.451M-278.451 24.4863H-403.92L-627 -52.9985L-477.222 -52.9989M-278.451 24.4863L-477.222 -52.9989M-278.451 24.4863L-135.134 80.3357H80.7957M-477.222 -52.9989L121.896 -52.9984M80.7957 80.3357L-177.663 -53M80.7957 80.3357L319.977 203.714H389.253L418.779 221.874H1181.95L1220.8 203.714H1290.07L1343.35 181.97H1419.49L1492.68 155.494M541.573 122.511H636.324M541.573 122.511L512.71 80.3362M636.324 122.511H825.826M636.324 122.511L571.233 -52.9984M636.324 122.511L666.434 203.716L673.186 221.876L678.88 237.275L688.07 262M825.826 122.511H920.576M825.826 122.511L836.631 80.3373M920.576 122.511L944.596 80.3362M1376.51 80.3357L1151.5 203.716M1919.22 -52.9989L1619.66 -52.9984M-327.441 -52.9948L142.075 155.5H310.895L353.927 181.975H1115.03L1155.04 155.5H1323.86L1769.44 -52.9948M-403.919 24.4879L-243.124 80.3378H-135.132L-26.929 122.513H257.323M257.323 122.513H352.074L395.318 155.497M257.323 122.513L310.895 155.498L395.318 155.497M257.323 122.513L-27.8823 -52.9967M395.318 155.497L458.556 203.717H1012.92L1070.62 155.497M395.318 155.497H1070.62M1070.62 155.497L1110.08 122.513H1204.83M1070.62 155.497L1155.05 155.498L1204.83 122.513M1204.83 122.513H1489.08L1592.44 80.3378H1700.43L1854.84 24.4879M1204.83 122.513L1469.88 -52.9967M1619.66 -52.9984H1320.1M1320.1 -52.9984H1170.35M1170.35 -52.9984H1020.57M1020.57 -52.9984L976.427 24.4863M1020.57 -52.9984L870.792 -52.9975M976.427 24.4863L944.596 80.3362M976.427 24.4863L725.463 24.4866M944.596 80.3362L836.631 80.3373M841.106 262H790.103M841.106 262L892.136 262M790.103 262H739.073M739.073 262H688.07M688.07 262H637.04M637.04 262L586.011 262M512.71 80.3362L474.47 24.4863M512.71 80.3362L836.631 80.3373M474.47 24.4863L421.454 -52.9984M474.47 24.4863L725.463 24.4866M421.454 -52.9984H271.675M421.454 -52.9984L721.013 -52.9975M271.675 -52.9984H121.896M870.792 -52.9975H721.013M870.792 -52.9975L836.631 80.3373M721.013 -52.9975L725.463 24.4866M-243.125 80.3329L-121.681 122.508H-26.9297L57.6519 155.493H142.075L201.711 181.969H353.927L389.253 203.712H458.555L502.594 237.272H561.356L574.571 250.509H902.279L913.957 237.272H972.72L1012.92 203.712H1082.19L1115.03 181.969H1267.25L1323.86 155.493H1408.29L1489.08 122.508H1583.83L1700.43 80.3329M-121.68 122.511L-26.7703 155.496M-26.7703 155.496H57.6526L125.604 181.972M-26.7703 155.496L49.4964 181.972M125.604 181.972H201.712L250.676 203.716M125.604 181.972H49.4964M125.604 181.972L181.374 203.716M250.676 203.716H319.978L355.172 221.876M250.676 203.716H181.374M250.676 203.716L291.59 221.876M355.172 221.876H418.781L443.832 237.275M355.172 221.876H291.59M355.172 221.876L385.043 237.275M443.832 237.275H502.594L519.94 250.512M443.832 237.275H385.043M443.832 237.275L465.335 250.512H519.94M519.94 250.512L535.008 262M519.94 250.512H574.571L586.011 262M535.008 262H586.011M535.008 262H483.977M49.4964 181.972L112.098 203.716M181.374 203.716L112.098 203.716M181.374 203.716L227.981 221.876M291.59 221.876L227.981 221.876M291.59 221.876L326.28 237.275M385.043 237.275L326.28 237.275M385.043 237.275L410.703 250.512M112.098 203.716L164.398 221.876M227.981 221.876L164.398 221.876M227.981 221.876L267.517 237.275M326.28 237.275L267.517 237.275M326.28 237.275L356.071 250.512M410.703 250.512L432.974 262M410.703 250.512L356.071 250.512M410.703 250.512L465.334 250.512L483.977 262M432.974 262H483.977M432.974 262H381.943M164.398 221.876L208.754 237.275M267.517 237.275H208.754M267.517 237.275L301.466 250.512M356.071 250.512H301.466M356.071 250.512L381.943 262M1096.2 262H1147.21M1147.21 262H1198.24L1229.99 250.512M1147.21 262L1175.35 250.512H1229.99M1229.99 250.512L1266.56 237.275M892.136 262L902.278 250.512H956.883M892.136 262H943.14M956.883 250.512L972.719 237.275H1031.48M956.883 250.512L943.14 262M956.883 250.512L1011.52 250.512M1031.48 237.275L1011.52 250.512M1031.48 237.275L1090.27 237.275M1031.48 237.275L1082.19 203.716H1151.5M1151.5 203.716L1220.8 203.716L1267.25 181.972H1343.35L1408.29 155.496H1492.68L1583.83 122.511M1151.5 203.716L1090.27 237.275M994.171 262H1045.17M994.171 262H943.14M994.171 262L1011.52 250.512M1045.17 262H1096.2L1120.75 250.512M1045.17 262L1066.12 250.512M1120.75 250.512L1149.03 237.275M1120.75 250.512H1066.12M1120.75 250.512H1175.36L1207.8 237.275M1149.03 237.275H1207.8M1149.03 237.275L1090.27 237.275M1149.03 237.275L1181.95 221.876L1245.56 221.876M1207.8 237.275L1245.56 221.876M1207.8 237.275H1266.56L1309.17 221.876M1245.56 221.876H1309.17M1245.56 221.876L1290.07 203.716L1359.38 203.716M1309.17 221.876L1359.38 203.716M1359.38 203.716L1419.49 181.972M1011.52 250.512L1066.12 250.512M1090.27 237.275L1066.12 250.512M208.754 237.275L246.835 250.512M301.466 250.512L330.94 262M301.466 250.512H246.835M330.94 262H381.943M330.94 262H279.91L246.835 250.512" stroke="url(#paint0_linear_2237_6749)" stroke-opacity="0.16" stroke-linecap="round" stroke-linejoin="round"/>
<defs>
<linearGradient id="paint0_linear_2237_6749" x1="721" y1="262" x2="721" y2="-53" gradientUnits="userSpaceOnUse">
<stop stop-opacity="0"/>
<stop offset="1"/>
</linearGradient>
</defs>
</svg>