<svg width="1440" height="317" viewBox="0 0 1440 317" fill="none" xmlns="http://www.w3.org/2000/svg">
<path d="M1728.35 238.514H1853.84L2068 315.998L1918.22 315.999M1728.35 238.514L1591.44 182.664H1375.51M1728.35 238.514L1918.22 315.999M1728.35 238.514H1477.36M1477.36 238.514L1375.51 182.664M1477.36 238.514L1618.66 315.998M1477.36 238.514H1226.39M1226.39 238.514H1100.9M1226.39 238.514L1159.55 182.663L1051.59 182.664M1226.39 238.514L1319.1 315.998M1100.9 238.514L1051.59 182.664M1100.9 238.514L975.427 238.514M1100.9 238.514L1169.35 315.998M1051.59 182.664L1014.33 140.489M1051.59 182.664L943.596 182.664M1014.33 140.489L919.576 140.489M1014.33 140.489L1109.08 140.489L1159.55 182.664H1375.51M1014.33 140.489L912.957 25.7252H854.195M854.195 25.7252H795.432M854.195 25.7252L919.576 140.489M854.195 25.7252L840.106 1M795.432 25.7252H736.67M795.432 25.7252L789.103 1M795.432 25.7252L824.826 140.489M736.67 25.7252L737.412 12.4878L738.073 1M736.67 25.7252L735.77 41.1239L731.956 107.504L724.463 238.513M736.67 25.7252H619.119M619.119 25.7252H560.356L445.824 140.489M619.119 25.7252L636.04 1M619.119 25.7252L596.133 59.2845L581.276 81.0282L540.573 140.489M445.824 140.489L403.718 182.664M445.824 140.489L351.072 140.489L295.752 182.664H79.7957M445.824 140.489L540.573 140.489M403.718 182.664L348.001 238.514M403.718 182.664L295.753 182.663L222.505 238.514M403.718 182.664L511.71 182.664M348.001 238.514H222.505M348.001 238.514L270.675 315.998M348.001 238.514L473.47 238.514M222.505 238.514L120.896 315.998M222.505 238.514H-279.451M-279.451 238.514H-404.92L-628 315.998L-478.222 315.999M-279.451 238.514L-478.222 315.999M-279.451 238.514L-136.134 182.664H79.7957M-478.222 315.999L120.896 315.998M79.7957 182.664L-178.663 316M79.7957 182.664L318.977 59.2861H388.253L417.779 41.1255H1180.95L1219.8 59.2861H1289.07L1342.35 81.0297H1418.49L1491.68 107.506M540.573 140.489H635.324M540.573 140.489L511.71 182.664M635.324 140.489H824.826M635.324 140.489L570.233 315.998M635.324 140.489L665.433 59.2845L672.186 41.1239L677.88 25.7251L687.07 1M824.826 140.489H919.576M824.826 140.489L835.631 182.663M919.576 140.489L943.596 182.664M1375.51 182.664L1150.5 59.2845M1918.22 315.999L1618.66 315.998M-328.441 315.995L141.075 107.5H309.895L352.927 81.0245H1114.03L1154.04 107.5H1322.86L1768.44 315.995M-404.919 238.512L-244.124 182.662H-136.132L-27.929 140.487H256.323M256.323 140.487H351.074L394.318 107.503M256.323 140.487L309.895 107.502L394.318 107.503M256.323 140.487L-28.8823 315.997M394.318 107.503L457.556 59.2829H1011.92L1069.62 107.503M394.318 107.503H1069.62M1069.62 107.503L1109.08 140.487H1203.83M1069.62 107.503L1154.05 107.502L1203.83 140.487M1203.83 140.487H1488.08L1591.44 182.662H1699.43L1853.84 238.512M1203.83 140.487L1468.88 315.997M1618.66 315.998H1319.1M1319.1 315.998H1169.35M1169.35 315.998H1019.57M1019.57 315.998L975.427 238.514M1019.57 315.998L869.792 315.998M975.427 238.514L943.596 182.664M975.427 238.514L724.463 238.513M943.596 182.664L835.631 182.663M840.106 1H789.103M840.106 1L891.135 1M789.103 1H738.073M738.073 1H687.07M687.07 1H636.04M636.04 1L585.011 1M511.71 182.664L473.47 238.514M511.71 182.664L835.631 182.663M473.47 238.514L420.454 315.998M473.47 238.514L724.463 238.513M420.454 315.998H270.675M420.454 315.998L720.013 315.998M270.675 315.998H120.896M869.792 315.998H720.013M869.792 315.998L835.631 182.663M720.013 315.998L724.463 238.513M-244.125 182.667L-122.681 140.492H-27.9297L56.6519 107.507H141.075L200.711 81.0315H352.927L388.253 59.2878H457.555L501.594 25.7285H560.356L573.571 12.4912H901.279L912.957 25.7285H971.72L1011.92 59.2878H1081.19L1114.03 81.0315H1266.25L1322.86 107.507H1407.29L1488.08 140.492H1582.83L1699.43 182.667M-122.68 140.489L-27.7703 107.504M-27.7703 107.504H56.6526L124.604 81.0282M-27.7703 107.504L48.4964 81.0282M124.604 81.0282H200.712L249.676 59.2845M124.604 81.0282H48.4964M124.604 81.0282L180.374 59.2845M249.676 59.2845H318.978L354.172 41.1239M249.676 59.2845H180.374M249.676 59.2845L290.59 41.1239M354.172 41.1239H417.781L442.832 25.7251M354.172 41.1239H290.59M354.172 41.1239L384.043 25.7251M442.832 25.7251H501.594L518.94 12.4878M442.832 25.7251H384.043M442.832 25.7251L464.335 12.4878H518.94M518.94 12.4878L534.008 1M518.94 12.4878H573.571L585.011 1M534.008 1H585.011M534.008 1H482.977M48.4964 81.0282L111.098 59.2845M180.374 59.2845L111.098 59.2845M180.374 59.2845L226.981 41.1239M290.59 41.1239L226.981 41.1239M290.59 41.1239L325.28 25.7251M384.043 25.7251L325.28 25.7251M384.043 25.7251L409.703 12.4878M111.098 59.2845L163.398 41.1239M226.981 41.1239L163.398 41.1239M226.981 41.1239L266.517 25.7251M325.28 25.7251L266.517 25.7251M325.28 25.7251L355.071 12.4878M409.703 12.4878L431.974 1M409.703 12.4878L355.071 12.4878M409.703 12.4878L464.334 12.4878L482.977 1M431.974 1H482.977M431.974 1H380.943M163.398 41.1239L207.754 25.7251M266.517 25.7251H207.754M266.517 25.7251L300.466 12.4878M355.071 12.4878H300.466M355.071 12.4878L380.943 1M1095.2 1H1146.21M1146.21 1H1197.24L1228.99 12.4878M1146.21 1L1174.35 12.4878H1228.99M1228.99 12.4878L1265.56 25.7251M891.135 1L901.278 12.4878H955.883M891.135 1H942.14M955.883 12.4878L971.719 25.7251H1030.48M955.883 12.4878L942.14 1M955.883 12.4878L1010.52 12.4878M1030.48 25.7251L1010.52 12.4878M1030.48 25.7251L1089.27 25.7251M1030.48 25.7251L1081.19 59.2845H1150.5M1150.5 59.2845L1219.8 59.2845L1266.25 81.0282H1342.35L1407.29 107.504H1491.68L1582.83 140.489M1150.5 59.2845L1089.27 25.7251M993.171 1H1044.17M993.171 1H942.14M993.171 1L1010.52 12.4878M1044.17 1H1095.2L1119.75 12.4878M1044.17 1L1065.12 12.4878M1119.75 12.4878L1148.03 25.7251M1119.75 12.4878H1065.12M1119.75 12.4878H1174.36L1206.8 25.7251M1148.03 25.7251H1206.8M1148.03 25.7251L1089.27 25.7251M1148.03 25.7251L1180.95 41.1239L1244.56 41.1239M1206.8 25.7251L1244.56 41.1239M1206.8 25.7251H1265.56L1308.17 41.1239M1244.56 41.1239H1308.17M1244.56 41.1239L1289.07 59.2845L1358.38 59.2845M1308.17 41.1239L1358.38 59.2845M1358.38 59.2845L1418.49 81.0282M1010.52 12.4878L1065.12 12.4878M1089.27 25.7251L1065.12 12.4878M207.754 25.7251L245.835 12.4878M300.466 12.4878L329.94 1M300.466 12.4878H245.835M329.94 1H380.943M329.94 1H278.91L245.835 12.4878" stroke="url(#paint0_linear_2237_7451)" stroke-opacity="0.16" stroke-linecap="round" stroke-linejoin="round"/>
<defs>
<linearGradient id="paint0_linear_2237_7451" x1="720" y1="1" x2="720" y2="316" gradientUnits="userSpaceOnUse">
<stop stop-opacity="0"/>
<stop offset="0.48" stop-opacity="0.64"/>
<stop offset="1" stop-opacity="0"/>
</linearGradient>
</defs>
</svg>
