<svg width="2698" height="317" viewBox="0 0 2698 317" fill="none" xmlns="http://www.w3.org/2000/svg">
<path d="M2357.35 78.4863H2482.84L2697 1.00152L2547.22 1.00108M2357.35 78.4863L2220.44 134.336H2004.51M2357.35 78.4863L2547.22 1.00108M2357.35 78.4863H2106.36M2106.36 78.4863L2004.51 134.336M2106.36 78.4863L2247.66 1.0016M2106.36 78.4863H1855.39M1855.39 78.4863H1729.9M1855.39 78.4863L1788.55 134.337L1680.59 134.336M1855.39 78.4863L1948.1 1.0016M1729.9 78.4863L1680.59 134.336M1729.9 78.4863L1604.43 78.4863M1729.9 78.4863L1798.35 1.0016M1680.59 134.336L1643.33 176.511M1680.59 134.336L1572.6 134.336M1643.33 176.511L1548.58 176.511M1643.33 176.511L1738.08 176.511L1788.55 134.336H2004.51M1643.33 176.511L1541.96 291.275H1483.19M1483.19 291.275H1424.43M1483.19 291.275L1548.58 176.511M1483.19 291.275L1469.11 316M1424.43 291.275H1365.67M1424.43 291.275L1418.1 316M1424.43 291.275L1453.83 176.511M1365.67 291.275L1366.41 304.512L1367.07 316M1365.67 291.275L1364.77 275.876L1360.96 209.496L1353.46 78.4866M1365.67 291.275H1248.12M1248.12 291.275H1189.36L1074.82 176.511M1248.12 291.275L1265.04 316M1248.12 291.275L1225.13 257.716L1210.28 235.972L1169.57 176.511M1074.82 176.511L1032.72 134.336M1074.82 176.511L980.072 176.511L924.752 134.336H708.796M1074.82 176.511L1169.57 176.511M1032.72 134.336L977.001 78.4863M1032.72 134.336L924.753 134.337L851.505 78.4863M1032.72 134.336L1140.71 134.336M977.001 78.4863H851.505M977.001 78.4863L899.675 1.0016M977.001 78.4863L1102.47 78.4863M851.505 78.4863L749.896 1.0016M851.505 78.4863H349.549M349.549 78.4863H224.08L1 1.00152L150.778 1.00108M349.549 78.4863L150.778 1.00108M349.549 78.4863L492.866 134.336H708.796M150.778 1.00108L749.896 1.0016M708.796 134.336L450.337 1.00001M708.796 134.336L947.977 257.714H1017.25L1046.78 275.874H1809.95L1848.8 257.714H1918.07L1971.35 235.97H2047.49L2120.68 209.494M1169.57 176.511H1264.32M1169.57 176.511L1140.71 134.336M1264.32 176.511H1453.83M1264.32 176.511L1199.23 1.0016M1264.32 176.511L1294.43 257.716L1301.19 275.876L1306.88 291.275L1316.07 316M1453.83 176.511H1548.58M1453.83 176.511L1464.63 134.337M1548.58 176.511L1572.6 134.336M2004.51 134.336L1779.5 257.716M2547.22 1.00108L2247.66 1.0016M300.559 1.00524L770.075 209.5H938.895L981.927 235.975H1743.03L1783.04 209.5H1951.86L2397.44 1.00524M224.081 78.4879L384.876 134.338H492.868L601.071 176.513H885.323M885.323 176.513H980.074L1023.32 209.497M885.323 176.513L938.895 209.498L1023.32 209.497M885.323 176.513L600.118 1.00326M1023.32 209.497L1086.56 257.717H1640.92L1698.62 209.497M1023.32 209.497H1698.62M1698.62 209.497L1738.08 176.513H1832.83M1698.62 209.497L1783.05 209.498L1832.83 176.513M1832.83 176.513H2117.08L2220.44 134.338H2328.43L2482.84 78.4879M1832.83 176.513L2097.88 1.00326M2247.66 1.0016H1948.1M1948.1 1.0016H1798.35M1798.35 1.0016H1648.57M1648.57 1.0016L1604.43 78.4863M1648.57 1.0016L1498.79 1.00248M1604.43 78.4863L1572.6 134.336M1604.43 78.4863L1353.46 78.4866M1572.6 134.336L1464.63 134.337M1469.11 316H1418.1M1469.11 316L1520.14 316M1418.1 316H1367.07M1367.07 316H1316.07M1316.07 316H1265.04M1265.04 316L1214.01 316M1140.71 134.336L1102.47 78.4863M1140.71 134.336L1464.63 134.337M1102.47 78.4863L1049.45 1.0016M1102.47 78.4863L1353.46 78.4866M1049.45 1.0016H899.675M1049.45 1.0016L1349.01 1.00248M899.675 1.0016H749.896M1498.79 1.00248H1349.01M1498.79 1.00248L1464.63 134.337M1349.01 1.00248L1353.46 78.4866M384.875 134.333L506.319 176.508H601.07L685.652 209.493H770.075L829.711 235.969H981.927L1017.25 257.712H1086.56L1130.59 291.272H1189.36L1202.57 304.509H1530.28L1541.96 291.272H1600.72L1640.92 257.712H1710.19L1743.03 235.969H1895.25L1951.86 209.493H2036.29L2117.08 176.508H2211.83L2328.43 134.333M506.32 176.511L601.23 209.496M601.23 209.496H685.653L753.604 235.972M601.23 209.496L677.496 235.972M753.604 235.972H829.712L878.676 257.716M753.604 235.972H677.496M753.604 235.972L809.374 257.716M878.676 257.716H947.978L983.172 275.876M878.676 257.716H809.374M878.676 257.716L919.59 275.876M983.172 275.876H1046.78L1071.83 291.275M983.172 275.876H919.59M983.172 275.876L1013.04 291.275M1071.83 291.275H1130.59L1147.94 304.512M1071.83 291.275H1013.04M1071.83 291.275L1093.34 304.512H1147.94M1147.94 304.512L1163.01 316M1147.94 304.512H1202.57L1214.01 316M1163.01 316H1214.01M1163.01 316H1111.98M677.496 235.972L740.098 257.716M809.374 257.716L740.098 257.716M809.374 257.716L855.981 275.876M919.59 275.876L855.981 275.876M919.59 275.876L954.28 291.275M1013.04 291.275L954.28 291.275M1013.04 291.275L1038.7 304.512M740.098 257.716L792.398 275.876M855.981 275.876L792.398 275.876M855.981 275.876L895.517 291.275M954.28 291.275L895.517 291.275M954.28 291.275L984.071 304.512M1038.7 304.512L1060.97 316M1038.7 304.512L984.071 304.512M1038.7 304.512L1093.33 304.512L1111.98 316M1060.97 316H1111.98M1060.97 316H1009.94M792.398 275.876L836.754 291.275M895.517 291.275H836.754M895.517 291.275L929.466 304.512M984.071 304.512H929.466M984.071 304.512L1009.94 316M1724.2 316H1775.21M1775.21 316H1826.24L1857.99 304.512M1775.21 316L1803.35 304.512H1857.99M1857.99 304.512L1894.56 291.275M1520.14 316L1530.28 304.512H1584.88M1520.14 316H1571.14M1584.88 304.512L1600.72 291.275H1659.48M1584.88 304.512L1571.14 316M1584.88 304.512L1639.52 304.512M1659.48 291.275L1639.52 304.512M1659.48 291.275L1718.27 291.275M1659.48 291.275L1710.19 257.716H1779.5M1779.5 257.716L1848.8 257.716L1895.25 235.972H1971.35L2036.29 209.496H2120.68L2211.83 176.511M1779.5 257.716L1718.27 291.275M1622.17 316H1673.17M1622.17 316H1571.14M1622.17 316L1639.52 304.512M1673.17 316H1724.2L1748.75 304.512M1673.17 316L1694.12 304.512M1748.75 304.512L1777.03 291.275M1748.75 304.512H1694.12M1748.75 304.512H1803.36L1835.8 291.275M1777.03 291.275H1835.8M1777.03 291.275L1718.27 291.275M1777.03 291.275L1809.95 275.876L1873.56 275.876M1835.8 291.275L1873.56 275.876M1835.8 291.275H1894.56L1937.17 275.876M1873.56 275.876H1937.17M1873.56 275.876L1918.07 257.716L1987.38 257.716M1937.17 275.876L1987.38 257.716M1987.38 257.716L2047.49 235.972M1639.52 304.512L1694.12 304.512M1718.27 291.275L1694.12 304.512M836.754 291.275L874.835 304.512M929.466 304.512L958.94 316M929.466 304.512H874.835M958.94 316H1009.94M958.94 316H907.91L874.835 304.512" stroke="url(#paint0_linear_7_33)" stroke-opacity="0.16" stroke-linecap="round" stroke-linejoin="round"/>
<defs>
<linearGradient id="paint0_linear_7_33" x1="1349" y1="316" x2="1349" y2="1" gradientUnits="userSpaceOnUse">
<stop stop-opacity="0"/>
<stop offset="1"/>
</linearGradient>
</defs>
</svg>
